<svg width="489" height="229" viewBox="0 0 489 229" fill="none" xmlns="http://www.w3.org/2000/svg">
<path d="M203.839 120.117C199.111 121.426 195.191 123.817 191.385 127.574C187.465 131.502 185.793 134.861 184.985 140.61C183.659 149.605 187.003 157.119 195.075 163.381C198.304 165.829 198.477 165.886 200.265 165.203C202.398 164.349 208.625 162.186 209.836 161.901C210.297 161.787 209.086 160.706 206.953 159.453C202.11 156.493 196.517 151.085 194.845 147.669C192.827 143.627 192.884 136.512 194.96 132.071C196.747 128.371 200.38 124.671 203.955 123.02C207.587 121.369 213.814 120.629 218.369 121.312C227.018 122.678 230.938 126.948 231.803 135.942C232.322 141.977 233.417 143.741 236.877 143.969C241.605 144.311 244.142 140.553 242.816 135.202C241.028 128.257 233.879 122.394 224.019 119.889C219.464 118.693 208.337 118.807 203.839 120.117Z" fill="white"/>
<path d="M340.377 119.945C334.611 120.913 326.251 124.101 321.523 127.232C314.2 132.071 306.417 140.439 302.438 147.725C299.498 153.02 296.557 162.413 296.096 167.878L295.635 172.489L292.06 175.904C286.583 181.085 278.972 183.988 273.148 183.134C269.574 182.622 262.885 179.263 254.294 173.741C246.511 168.732 240.226 165.544 233.826 163.38C230.309 162.242 228.752 162.071 221.718 162.071C214.511 162.071 213.127 162.242 208.745 163.665C202.807 165.601 194.216 169.927 186.835 174.766C180.32 179.035 172.133 183.02 167.982 183.931C166.309 184.273 162.965 184.614 160.428 184.614C151.78 184.671 145.092 181.711 132.234 172.318C127.391 168.788 121.798 165.145 119.838 164.234C110.267 159.965 99.946 163.096 90.3172 173.172C86.1082 177.555 83.0524 182.28 81.0344 187.574C78.7858 193.495 79.3047 193.21 82.6488 186.721C85.0704 181.939 86.5118 179.946 90.2596 176.189C98.6775 167.707 107.903 164.917 117.185 168.048C121.567 169.529 122.49 170.041 133.791 177.384C146.706 185.81 154.144 188.428 162.908 187.688C170.634 187.005 176.688 184.5 188.104 177.328C204.19 167.251 210.417 164.917 221.43 164.917C225.927 164.917 229.271 165.259 231.808 165.942C236.997 167.365 245.127 171.35 250.258 175.05C258.734 181.199 264.903 185.07 268.075 186.265C275.397 188.941 284.161 186.265 291.368 179.092C293.386 177.043 295.173 175.392 295.346 175.392C295.519 175.392 295.865 177.214 296.038 179.434C297.134 190.079 302.784 202.091 311.029 211.142C316.91 217.632 328.615 224.292 338.013 226.569C345.047 228.22 355.425 228.22 362.171 226.569C367.706 225.146 373.703 222.698 378.085 219.966C379.757 218.941 381.775 218.087 382.64 218.087C384.658 218.087 388.751 222.186 389.558 224.975C389.962 226.342 390.481 226.911 391.23 226.911C392.384 226.911 392.384 226.342 392.499 202.432L392.614 177.954L394.632 176.189C395.785 175.221 396.708 174.14 396.708 173.741C396.708 173.286 392.095 173.115 379.872 173.115C370.474 173.115 362.056 172.83 360.903 172.546C358.135 171.806 356.29 169.699 355.944 166.91C355.656 164.917 355.425 164.576 354.272 164.576H352.946L353.004 173.969L353.061 183.362H354.387C355.541 183.362 355.771 183.077 355.771 181.711C355.771 180.857 356.348 179.377 357.04 178.523C359.231 175.791 361.076 175.392 372.492 175.392H382.87L382.755 194.576L382.582 213.818L379.065 216.436C369.84 223.268 356.117 225.146 344.874 220.991C338.647 218.714 333.689 215.81 327.519 210.744C315.872 201.18 306.359 187.916 302.669 175.961C301.573 172.546 301.343 170.326 301.343 164.861C301.285 158.883 301.516 157.46 302.9 153.418C306.878 141.976 315.815 132.298 327.807 126.435C335.649 122.621 340.261 121.653 350.294 121.596C361.422 121.596 366.092 123.247 371.166 128.883C373.703 131.786 374.683 134.405 375.317 140.268C375.663 143.627 376.009 144.481 377.335 145.619C379.584 147.498 382.467 147.384 384.658 145.278C386.099 143.854 386.33 143.171 386.33 140.553C386.272 135.031 382.467 129.623 375.605 125.296C366.553 119.66 353.753 117.725 340.377 119.945Z" fill="white"/>
<path d="M5.96734 120.061C-0.432618 120.231 -1.52811 120.858 1.93133 122.452C2.96916 122.964 3.89168 123.875 4.1223 124.729C4.81419 127.234 4.69888 220.594 4.00699 222.529C3.60339 223.668 2.79619 224.465 1.7007 224.863C0.778184 225.148 0.0286398 225.831 0.0286398 226.344C0.0286398 227.197 2.1043 227.254 23.8411 227.027C49.4986 226.799 50.1904 226.685 59.1273 223.383C67.1993 220.366 72.8497 216.723 78.7308 210.632C84.3812 204.825 86.4569 201.922 89.3974 195.66C92.1073 189.91 93.837 183.819 94.3559 178.183L94.7595 174.028L93.0298 175.28C92.0496 175.963 89.801 178.354 88.0713 180.631C85.1884 184.331 84.7271 185.413 83.3434 190.764C80.9218 200.214 77.347 206.647 71.1777 212.453C64.6624 218.545 58.3201 221.789 49.095 223.839C44.9436 224.693 41.7148 224.92 29.3762 224.92H14.5583L14.3276 174.369C14.2123 146.589 14.2123 123.419 14.3853 122.793C14.6159 121.769 15.3078 121.769 29.9528 122.053C40.4464 122.281 46.6157 122.622 49.5562 123.249C68.8714 127.234 83.5163 146.93 84.6695 170.384C84.7848 173.8 85.1307 176.532 85.3037 176.532C85.5343 176.532 86.1109 175.792 86.6298 174.938C87.1487 174.084 89.0514 171.978 90.7811 170.384C94.5865 166.798 94.6442 166.342 92.5685 159.113C86.5722 138.562 71.0624 124.843 49.0373 120.687C45.4626 120.061 20.3816 119.662 5.96734 120.061Z" fill="white"/>
<path d="M99.4329 120.117C98.741 120.8 99.3753 121.825 100.644 122.109C103.584 122.849 103.815 124.215 103.815 143.855V161.844L105.429 161.503C106.294 161.332 108.485 160.99 110.33 160.763L113.617 160.421V141.18V121.881H128.492C147.461 121.881 152.824 122.621 157.667 125.923C160.723 127.973 162.106 130.534 162.798 135.259C163.317 138.789 163.605 139.529 164.47 139.529C165.45 139.529 165.508 138.903 165.393 129.68L165.22 119.889H132.471C114.424 119.889 99.5482 120.003 99.4329 120.117Z" fill="white"/>
<path d="M265.478 120.116C264.902 120.685 265.305 121.88 266.113 121.88C266.632 121.88 267.669 122.506 268.419 123.303L269.86 124.67V152.621V180.515L271.359 181.084C272.974 181.711 277.356 181.824 278.74 181.312C279.547 181.027 279.662 177.953 279.662 152.906V124.897L281.161 123.36C282.026 122.563 283.064 121.88 283.467 121.88C283.929 121.88 284.275 121.482 284.275 121.026C284.275 120.4 283.525 120.172 281.276 120.172C279.604 120.116 275.395 120.059 271.994 120.002C268.534 119.945 265.594 120.002 265.478 120.116Z" fill="white"/>
<path d="M401.323 120.969C401.323 121.424 402.13 122.051 403.11 122.392C404.09 122.734 405.532 123.701 406.281 124.555L407.665 126.149V149.489C407.665 162.298 407.665 183.133 407.665 195.657C407.665 210.629 407.492 219.111 407.088 220.136C406.339 222.071 403.975 224.235 402.072 224.69C401.265 224.918 400.746 225.487 400.746 226.113C400.746 227.138 401.265 227.195 408.991 227.195C413.546 227.195 417.409 227.024 417.64 226.853C418.159 226.341 417.409 224.918 416.602 224.918C415.276 224.918 412.278 222.014 411.413 219.965C410.721 218.314 410.548 211.141 410.548 174.423C410.548 150.457 410.605 130.703 410.778 130.59C410.894 130.419 413.777 134.233 417.063 139.072C420.407 143.854 423.636 148.408 424.27 149.205C424.847 150.002 427.384 153.588 429.863 157.175C432.342 160.761 437.704 168.389 441.74 174.082C445.776 179.718 450.504 186.378 452.234 188.883C453.906 191.331 458.807 198.333 463.074 204.424C478.122 225.942 479.16 227.252 480.832 227.081L482.331 226.91L482.504 177.384C482.677 121.937 482.389 125.068 486.771 122.734C490.807 120.627 489.711 120.172 480.601 120.172C473.625 120.172 472.241 120.286 472.241 121.026C472.241 121.481 472.875 121.994 473.683 122.221C475.643 122.677 478.41 125.979 479.16 128.654C479.564 130.134 479.679 144.366 479.621 171.122L479.448 211.369L466.072 192.355C458.749 181.938 451.312 171.349 449.524 168.845C440.011 155.182 437.128 151.083 432.285 144.081C427.384 137.022 423.982 132.184 417.87 123.417L415.564 120.172H408.472C402.706 120.172 401.323 120.343 401.323 120.969Z" fill="white"/>
<path d="M146.308 162.072C146.078 162.3 145.905 163.325 145.905 164.406C145.905 165.772 145.386 166.911 143.945 168.391C142.1 170.384 141.754 170.497 137.891 170.725C135.642 170.839 133.797 171.181 133.797 171.465C133.797 172.319 135.988 173.116 138.409 173.116C141.869 173.116 144.867 175.222 145.617 178.24C146.02 179.72 146.827 180.517 148.096 180.517C148.672 180.517 148.788 178.467 148.672 171.294C148.499 163.438 148.384 162.015 147.635 161.845C147.116 161.788 146.539 161.845 146.308 162.072Z" fill="white"/>
<path d="M215.098 166.685C212.85 167.083 207.949 168.506 207.084 169.075C206.565 169.417 209.275 171.011 216.194 174.484C228.186 180.404 233.491 183.877 237.757 188.545C242.255 193.44 243.523 196.856 243.235 203.573C243.062 208.014 242.831 209.266 241.159 212.511C238.853 217.122 234.702 221.05 229.339 223.669C222.248 227.084 208.641 227.483 202.529 224.409C199.185 222.701 194.745 218.545 193.015 215.414C191.113 211.942 189.729 206.363 189.729 201.979C189.729 197.881 188.633 195.66 186.212 194.807C183.502 193.896 182.522 194.01 180.504 195.717C178.716 197.197 178.659 197.311 178.889 201.524C179.005 205.053 179.466 206.647 181.138 210.12C185.981 220.025 196.187 226.913 208.352 228.393C222.536 230.101 235.278 226.572 243.35 218.773C249.75 212.511 252.229 206.249 251.883 197.141C251.71 192.416 251.48 191.106 250.038 188.203C246.694 181.543 239.487 175.508 227.956 169.759C221.037 166.286 219.538 165.944 215.098 166.685Z" fill="white"/>
<path d="M109.001 168.446C108.194 168.503 106.695 168.731 105.714 168.902L103.812 169.186V195.486C103.812 224.121 103.869 223.722 100.583 224.918C99.8334 225.202 99.1992 225.829 99.1992 226.341C99.1992 227.081 103.005 227.195 132.352 227.195H165.505V218.2C165.505 213.248 165.332 209.035 165.159 208.807C164.352 208.01 163.199 209.206 163.199 210.914C163.199 215.354 160.547 219.965 156.799 222.014C152.129 224.633 149.649 224.918 131.084 224.918H113.614V199.016V173.114H118.226C120.821 173.114 122.839 172.886 122.839 172.545C122.839 171.52 120.59 170.837 117.131 170.837C114.075 170.837 113.614 170.723 113.614 169.755C113.614 168.617 111.826 168.105 109.001 168.446Z" fill="white"/>
<path d="M269.855 205.278C269.855 223.21 269.739 223.779 266.626 224.918C265.876 225.202 265.242 225.829 265.242 226.341C265.242 227.081 266.626 227.195 274.756 227.195C282.943 227.195 284.269 227.081 284.269 226.284C284.269 225.829 283.52 225.145 282.597 224.861C281.732 224.519 280.694 223.665 280.291 222.868C279.887 221.901 279.657 216.094 279.657 205.107V188.769H274.756H269.855V205.278Z" fill="white"/>
<circle cx="273.184" cy="106.87" r="5.75447" fill="white"/>
<path d="M318.703 73.6404V0.868652H329.784V64.2132H343.801V73.6404H318.703Z" fill="white"/>
<path d="M279.422 73.6404L289.8 0.868652H304.437L315.477 73.6404H305.14L291.661 60.6573L290.09 73.6404H279.422ZM292.736 51.7675L291.661 60.6573L305.14 73.6404L303.403 60.6573L302.246 51.7675L297.367 15.2163H297.201L292.736 51.7675Z" fill="white"/>
<path d="M261.926 74.4701C258.398 74.4701 255.462 73.6569 253.119 72.0306C250.776 70.4043 249.012 68.0337 247.826 64.9188C246.669 61.7764 246.09 57.9862 246.09 53.5482V21.8346C246.09 18.4992 246.365 15.4947 246.917 12.8208C247.468 10.147 248.364 7.85913 249.604 5.95714C250.845 4.05515 252.499 2.5942 254.566 1.57429C256.633 0.554387 259.183 0.0444336 262.215 0.0444336C264.972 0.0444336 267.315 0.499257 269.245 1.4089C271.202 2.29099 272.787 3.57276 273.999 5.25423C275.24 6.9357 276.136 8.97551 276.687 11.3737C277.266 13.7443 277.555 16.4181 277.555 19.3951V29.4012H266.846V20.098C266.846 16.5146 266.543 13.8821 265.937 12.2006C265.33 10.4916 264.117 9.63708 262.298 9.63708C260.286 9.63708 258.935 10.5605 258.246 12.4074C257.584 14.2267 257.254 16.7764 257.254 20.0567V54.0444C257.254 56.5804 257.392 58.6615 257.667 60.2879C257.97 61.8867 258.467 63.072 259.156 63.8438C259.845 64.588 260.81 64.9602 262.05 64.9602C263.924 64.9602 265.192 64.0781 265.854 62.3139C266.516 60.5498 266.846 57.7519 266.846 53.9204V43.5008H277.721V53.7963C277.721 58.3997 277.183 62.245 276.108 65.3323C275.033 68.392 273.324 70.6799 270.981 72.196C268.666 73.7121 265.647 74.4701 261.926 74.4701Z" fill="white"/>
<path d="M224.341 74.467C220.565 74.467 217.477 73.6676 215.079 72.0688C212.709 70.4701 210.958 68.0995 209.828 64.9571C208.698 61.8146 208.133 57.928 208.133 53.297V20.0122C208.133 15.8223 208.684 12.2389 209.787 9.26186C210.889 6.28483 212.64 3.99694 215.038 2.39816C217.436 0.799388 220.578 0 224.465 0C227.387 0 229.854 0.454824 231.866 1.36447C233.879 2.27412 235.505 3.59724 236.745 5.33384C237.986 7.04287 238.882 9.13782 239.433 11.6187C240.012 14.072 240.301 16.8698 240.301 20.0122V53.297C240.301 57.928 239.75 61.8146 238.647 64.9571C237.572 68.0995 235.863 70.4701 233.52 72.0688C231.177 73.6676 228.117 74.467 224.341 74.467ZM224.341 64.8744C225.719 64.8744 226.753 64.4609 227.442 63.6339C228.131 62.807 228.586 61.5528 228.807 59.8713C229.055 58.1623 229.179 56.0122 229.179 53.4211V19.5161C229.179 16.3461 228.876 13.9066 228.269 12.1975C227.69 10.4609 226.422 9.59264 224.465 9.59264C222.453 9.59264 221.088 10.4334 220.372 12.1148C219.655 13.7687 219.297 16.222 219.297 19.4747V53.4211C219.297 56.0673 219.407 58.245 219.627 59.954C219.876 61.6355 220.358 62.8759 221.075 63.6753C221.819 64.4747 222.908 64.8744 224.341 64.8744Z" fill="white"/>
<path d="M182.164 73.6404V0.868652H193.245V64.2132H207.262V73.6404H182.164Z" fill="white"/>
<path d="M157.893 74.3874C153.51 74.3874 149.981 72.6646 147.308 69.219C144.634 65.7458 143.297 60.1225 143.297 52.3492V20.7182C143.297 17.4656 143.6 14.5574 144.207 11.9939C144.841 9.43034 145.805 7.26648 147.101 5.50232C148.424 3.71059 150.133 2.3599 152.228 1.45025C154.323 0.513038 156.845 0.0444336 159.795 0.0444336C162.992 0.0444336 165.597 0.526822 167.609 1.4916C169.622 2.42881 171.165 3.80706 172.24 5.62636C173.343 7.41809 174.101 9.62329 174.514 12.242C174.928 14.8607 175.135 17.8239 175.135 21.1317V26.3002H164.798V18.6922C164.798 15.412 164.453 13.0827 163.764 11.7045C163.102 10.3262 161.834 9.63708 159.96 9.63708C157.893 9.63708 156.459 10.4502 155.66 12.0766C154.86 13.6754 154.461 16.5283 154.461 20.6355V52.1838C154.461 56.7596 154.792 60.0398 155.453 62.0245C156.142 63.9816 157.562 64.9602 159.712 64.9602C161.807 64.9602 163.282 63.954 164.136 61.9418C165.018 59.902 165.459 56.5115 165.459 51.7703V41.9709H159.877V33.9081H175.135L174.875 56.9934C174.875 56.9934 175.135 62.0245 172.362 67.0461C169.59 72.0677 168.665 71.3225 166.708 72.7007C164.75 74.079 160.401 74.3874 157.893 74.3874Z" fill="white"/>
</svg>
